<?xml version="1.0" encoding="utf-8"?>
<!DOCTYPE svg PUBLIC "-//W3C//DTD SVG 1.1//EN" "http://www.w3.org/Graphics/SVG/1.1/DTD/svg11.dtd">
<svg version="1.1" id="Layer_1" xmlns="http://www.w3.org/2000/svg" xmlns:xlink="http://www.w3.org/1999/xlink" x="0px" y="0px"
	 width="502.3px" height="171.08px" viewBox="0 0 502.3 171.08" enable-background="new 0 0 502.3 171.08" xml:space="preserve">
<g id="studio">
	<path fill="#FFFFFF" class="studio" d="M89.38,170.87v-9.81h19.7c3.03,0,5.53-0.72,7.5-2.16c1.97-1.45,2.96-3.32,2.96-5.63
		c0-1.15-0.26-2.21-0.79-3.17c-0.53-0.96-1.25-1.79-2.17-2.49c-0.91-0.7-2.02-1.24-3.32-1.62c-1.3-0.39-2.69-0.58-4.19-0.58h-4.47
		c-2.31,0-4.45-0.37-6.42-1.12c-1.97-0.75-3.68-1.8-5.12-3.18c-1.44-1.37-2.57-2.98-3.39-4.83c-0.82-1.85-1.23-3.91-1.23-6.17
		c0-2.21,0.42-4.25,1.26-6.13c0.84-1.88,2.03-3.51,3.57-4.91c1.54-1.4,3.39-2.49,5.56-3.28c2.16-0.79,4.55-1.19,7.14-1.19h18.69
		v9.81h-19.19c-2.07,0-3.7,0.56-4.91,1.7c-1.2,1.13-1.8,2.49-1.8,4.08c0,1.73,0.61,3.17,1.84,4.33s2.85,1.73,4.87,1.73h5.56
		c2.5,0,4.81,0.42,6.93,1.26c2.12,0.84,3.94,2.03,5.48,3.57c1.54,1.54,2.74,3.37,3.61,5.48c0.87,2.12,1.3,4.43,1.3,6.92
		c0,2.55-0.46,4.88-1.37,7c-0.91,2.12-2.22,3.95-3.93,5.48c-1.71,1.54-3.74,2.74-6.1,3.61c-2.36,0.87-4.98,1.3-7.87,1.3H89.38z"/>
	<polygon fill="#FFFFFF" class="studio" points="168.12,124.4 168.12,170.87 158.3,170.87 158.3,124.4 143.94,124.4 143.94,114.58 182.48,114.58 
		182.48,124.4 	"/>
	<path fill="#FFFFFF" class="studio" d="M247.65,114.58v30.88c0,8.18-1.89,14.46-5.67,18.83c-3.78,4.38-9.08,6.57-15.91,6.57h-1.87
		c-6.88,0-12.18-2.18-15.91-6.53c-3.73-4.35-5.59-10.64-5.59-18.87v-30.88h9.81v30.88c0,2.98,0.22,5.46,0.65,7.43
		c0.43,1.97,1.12,3.57,2.06,4.8c0.94,1.23,2.14,2.09,3.61,2.6c1.47,0.51,3.26,0.76,5.38,0.76h1.87c2.07,0,3.85-0.26,5.34-0.79
		c1.49-0.53,2.72-1.4,3.68-2.6c0.96-1.2,1.66-2.8,2.09-4.8c0.43-2,0.65-4.46,0.65-7.4v-30.88H247.65z"/>
	<path fill="#FFFFFF" class="studio" d="M270.47,170.87v-56.29h16.16c4.18,0,8.01,0.67,11.47,2.02c3.46,1.35,6.45,3.23,8.95,5.66
		c2.5,2.43,4.45,5.33,5.84,8.7c1.4,3.37,2.09,7.1,2.09,11.18c0,4.04-0.71,7.82-2.13,11.33c-1.42,3.51-3.38,6.56-5.88,9.13
		c-2.5,2.57-5.5,4.59-8.98,6.06s-7.28,2.2-11.37,2.2H270.47L270.47,170.87z M280.28,124.4v36.66h6.35c2.79,0,5.32-0.46,7.58-1.37
		c2.26-0.91,4.21-2.18,5.85-3.79c1.64-1.61,2.9-3.52,3.79-5.74s1.33-4.62,1.33-7.22c0-2.64-0.46-5.11-1.37-7.4
		c-0.92-2.28-2.19-4.24-3.83-5.88s-3.6-2.92-5.88-3.86c-2.29-0.94-4.77-1.41-7.47-1.41H280.28z"/>
	<path fill="#FFFFFF" class="studio" d="M325.4,161.13c1.35,0,2.51,0.43,3.5,1.3c0.99,0.87,1.48,2.09,1.48,3.68c0,1.54-0.49,2.75-1.48,3.64
		c-0.99,0.89-2.15,1.33-3.5,1.33c-1.35,0-2.52-0.44-3.54-1.33c-1.01-0.89-1.52-2.1-1.52-3.64c0-1.59,0.51-2.82,1.52-3.68
		C322.87,161.56,324.05,161.13,325.4,161.13z"/>
	<rect x="344.97" class="studio" y="114.58" fill="#FFFFFF" width="9.81" height="56.29"/>
	<path fill="#FFFFFF" class="studio" d="M398.38,170.87c-4.14,0-7.95-0.73-11.44-2.2c-3.49-1.47-6.48-3.5-8.98-6.1c-2.5-2.6-4.45-5.64-5.85-9.13
		c-1.4-3.49-2.09-7.25-2.09-11.29s0.68-7.75,2.06-11.11c1.37-3.37,3.29-6.28,5.77-8.73c2.48-2.45,5.46-4.36,8.95-5.7
		c3.49-1.35,7.35-2.02,11.58-2.02h1.66c4.28,0,8.17,0.69,11.65,2.06c3.49,1.37,6.47,3.28,8.95,5.74c2.48,2.45,4.39,5.36,5.74,8.73
		c1.35,3.37,2.02,7.05,2.02,11.04c0,4.04-0.7,7.81-2.09,11.29c-1.4,3.49-3.35,6.53-5.88,9.13c-2.53,2.6-5.52,4.63-8.98,6.1
		c-3.46,1.47-7.27,2.2-11.4,2.2H398.38L398.38,170.87z M398.38,124.4c-2.69,0-5.17,0.46-7.43,1.37c-2.26,0.92-4.22,2.19-5.88,3.83
		c-1.66,1.63-2.96,3.58-3.9,5.84c-0.94,2.26-1.41,4.76-1.41,7.5c0,2.65,0.46,5.08,1.37,7.29c0.91,2.21,2.19,4.12,3.82,5.74
		c1.64,1.61,3.6,2.86,5.88,3.75c2.29,0.89,4.8,1.33,7.54,1.33h1.66c2.79,0,5.33-0.46,7.62-1.37c2.28-0.91,4.24-2.18,5.88-3.79
		c1.63-1.61,2.9-3.52,3.79-5.74c0.89-2.21,1.33-4.62,1.33-7.22c0-2.69-0.46-5.17-1.37-7.43c-0.91-2.26-2.2-4.22-3.86-5.88
		c-1.66-1.66-3.63-2.95-5.92-3.86c-2.29-0.91-4.77-1.37-7.47-1.37H398.38z"/>
</g>
<path id="rocket_1_" class="img-rocket" fill-rule="evenodd" clip-rule="evenodd" fill="#FFFFFF" d="M158.03,53.17c-0.36-0.79-0.7-4.7-1.02-5.52
	c-0.38,0.77-0.73,1.58-1.04,2.41h-8.83c-0.73-0.57-0.95-1.43-0.31-2.77c2.22-4.64,5-9.34,7.01-13.03c-0.17-1.71-0.25-3.45-0.25-5.22
	c0.02-11.33,3.6-21.6,9.38-29.04c5.78,7.45,9.36,17.71,9.38,29.04c0,1.77-0.08,3.51-0.25,5.22c2.01,3.69,4.79,8.4,7.01,13.03
	c0.64,1.33,0.42,2.2-0.31,2.77h-8.83c-0.31-0.83-0.66-1.63-1.04-2.41c-0.32,0.82-0.66,4.73-1.02,5.52H158.03L158.03,53.17z
	 M161.72,13.91c-2.18,0-3.95,1.77-3.95,3.95c0,2.18,1.77,3.95,3.95,3.95c2.18,0,3.95-1.77,3.95-3.95
	C165.67,15.68,163.9,13.91,161.72,13.91z"/>
<path id="rocket_x5F_shadow" class="img-rocket-shadow" fill-rule="evenodd" clip-rule="evenodd" fill="#FFFFFF" d="M158.04,53.16
	c-0.37-0.78-0.71-4.69-1.03-5.51c-0.38,0.77-0.72,1.58-1.04,2.4h-8.82c-0.72-0.56-0.95-1.43-0.31-2.76
	c2.22-4.63,4.99-9.33,7.01-13.03c-0.17-1.7-0.26-3.43-0.25-5.21c0.03-11.34,3.6-21.59,9.38-29.04l0,0c1,4.99,1.7,10.25,2.05,15.7
	c-0.71-1.08-1.92-1.79-3.31-1.79c-2.18,0-3.95,1.77-3.95,3.95c0,2.18,1.77,3.95,3.95,3.95c1.52,0,2.84-0.86,3.5-2.12
	c0.05,1.41,0.07,2.83,0.07,4.26c0,10.42-1.26,20.31-3.51,29.2H158.04z"/>
<polygon id="fire" class="fire" fill-rule="evenodd" clip-rule="evenodd" fill="#FFFFFF" points="162.97,108 164.83,81.33 166.69,54.66 
	162.97,54.66 159.25,54.66 161.11,81.33 "/>
<g id="rocket">
	<g>
		<path fill="#FFFFFF" class="rocket" d="M155.2,53.62h-8.92c-0.52,0-1.01-0.18-1.39-0.48v0l-0.03-0.03l-0.04-0.04c-1.81-1.46-1.85-3.66-0.92-5.63
			c0.03-0.06,0.06-0.12,0.09-0.17c1.77-3.68,3.77-7.23,5.53-10.39l1.5-2.7c-0.06-0.71-0.11-1.42-0.15-2.13
			c-0.04-0.92-0.07-1.89-0.06-2.9v-0.06c0-1.15,0.04-2.25,0.1-3.3c0.1-1.67,0.27-3.31,0.5-4.91l0-0.01h0
			c0.23-1.6,0.54-3.18,0.9-4.73c0.92-3.92,2.25-7.62,3.92-11.03c-4.12,0.42-7.97,1.32-11.55,2.71c-5.15,1.99-9.55,4.79-13.2,8.41
			c-3.66,3.62-6.5,7.91-8.52,12.88c-2.02,4.97-3.03,10.44-3.03,16.4c0,5.96,1.03,11.52,3.09,16.66c2.06,5.15,4.93,9.64,8.62,13.47
			c2,2.08,4.22,3.9,6.64,5.48c-8.14-0.31-16.21-0.65-24.19-1.02l10.23,10.83c5.25,0.47,10.56,0.91,15.93,1.32l-0.02-0.01
			c4.64,0,8.94-2.09,12.14-5.29c0,0,0,0,0,0c0.01-0.01,0.03-0.03,0.04-0.04c0.38-0.38,0.74-0.78,1.08-1.19
			c0.07-0.09,0.15-0.18,0.22-0.27c0.28-0.34,0.54-0.69,0.8-1.05c0.07-0.1,0.14-0.2,0.21-0.29c0.3-0.44,0.58-0.89,0.84-1.35
			c0.04-0.07,0.08-0.14,0.11-0.21c0.14-0.26,0.29-0.52,0.42-0.79c-0.01,0-0.01,0-0.02,0c1.14-2.34,1.8-4.89,1.8-7.49
			C157.85,67.06,156.45,60.75,155.2,53.62z"/>
		<path fill="#FFFFFF" class="rocket" d="M0,72.19c26.62,6.17,57.32,11.36,91.06,15.34l-8.59-9.06C53.7,76.78,26.12,74.67,0,72.19z"/>
		<path fill="#FFFFFF" class="rocket" d="M431.05,77.78V19.34h21.19V4.86h-56.86v14.48h21.19v59.32c-8.04,0.46-16.17,0.89-24.39,1.29v-6.51h-26.72
			V52.99h22.46V38.61h-22.46V19.34h26.09V4.86h-40.57v76.76c-2.22,0.07-4.44,0.14-6.67,0.21l-29.42-40.34l24.81-36.63h-17.25
			l-35.56,56.11V4.86h-14.48v76.45c0,0.67,0.07,1.28,0.18,1.87c-2.18,0.02-4.37,0.03-6.57,0.04v-9.78h-12.14
			c-4.05,0-7.77-0.66-11.18-1.97c-3.41-1.31-6.32-3.16-8.73-5.54c-2.41-2.38-4.29-5.2-5.64-8.46c-1.35-3.27-2.02-6.85-2.02-10.75
			s0.69-7.54,2.08-10.91c1.38-3.37,3.3-6.26,5.75-8.68c2.45-2.41,5.36-4.31,8.73-5.7c3.37-1.38,7.05-2.08,11.02-2.08H266V4.86
			h-12.14c-6.25,0-11.94,0.99-17.09,2.98c-5.15,1.99-9.55,4.77-13.2,8.36c-3.66,3.58-6.49,7.86-8.52,12.83
			c-2.02,4.97-3.04,10.47-3.04,16.5c0,5.96,1.03,11.54,3.09,16.72c2.06,5.18,4.92,9.67,8.57,13.47c2.9,3.01,6.27,5.5,10.1,7.48
			c-16.36-0.09-32.52-0.31-48.45-0.66c3.33-1.88,6.32-4.16,8.96-6.88c3.73-3.83,6.62-8.32,8.68-13.47
			c2.06-5.15,3.09-10.7,3.09-16.66c0-5.89-0.99-11.32-2.98-16.29c-1.99-4.97-4.81-9.26-8.46-12.88c-3.66-3.62-8.06-6.44-13.2-8.47
			c-3.61-1.42-7.51-2.34-11.69-2.76c0.36,0.72,0.69,1.44,1,2.16c2.8,6.48,4.4,13.93,4.42,21.88v0v0.01l0,0.06
			c0,0.98-0.02,1.93-0.06,2.83c-0.04,0.71-0.09,1.42-0.15,2.14l1.5,2.69c1.79,3.21,3.82,6.82,5.61,10.56
			c0.55,1.15,0.71,2.16,0.58,3.07c-0.16,1.1-0.72,1.96-1.55,2.61c-0.42,0.32-0.91,0.48-1.4,0.48v0.01h-8.93
			c-1.53,8.62-2.62,15.93-2.62,24.63c0,1.34,0.17,2.64,0.48,3.89c0,0,0,0,0,0c0.02,0.08,0.05,0.16,0.07,0.24
			c0.08,0.31,0.17,0.62,0.27,0.93c0.04,0.13,0.09,0.26,0.14,0.39c0.1,0.27,0.2,0.53,0.31,0.8c0.06,0.14,0.13,0.29,0.19,0.43
			c0.11,0.24,0.22,0.48,0.35,0.72c0.08,0.15,0.15,0.29,0.23,0.44c0.12,0.23,0.26,0.45,0.39,0.67c0.09,0.14,0.18,0.28,0.27,0.42
			c0.06,0.09,0.11,0.18,0.17,0.26c0,0,0.01,0,0.01,0c2.88,4.2,7.65,7.1,13.12,7.5l1.01,0.04c0.1,0,0.2,0,0.3,0l-0.03,0.01
			c21.31,0.93,43.29,1.42,65.75,1.42c97.84,0,186.52-9.24,251.15-24.22C479.59,74.35,455.78,76.22,431.05,77.78z M287.62,83.03
			l18.63-28.66l19.1,27.98C312.91,82.66,300.33,82.88,287.62,83.03z"/>
		<path fill="#FFFFFF" class="rocket" d="M103.33,56.76c3.27-1.95,5.89-4.21,7.88-6.76c1.99-2.56,3.41-5.29,4.26-8.2
			c0.85-2.91,1.28-5.75,1.28-8.52c0-4.61-0.82-8.7-2.45-12.25c-1.63-3.55-3.85-6.51-6.66-8.89c-2.8-2.38-6.12-4.19-9.96-5.43
			c-3.83-1.24-7.91-1.86-12.24-1.86H54.67V73.7c4.8,0.28,9.63,0.54,14.48,0.8V19.34h15.97c5.32,0,9.42,1.19,12.3,3.57
			s4.31,5.95,4.31,10.7c0,11.89-11.27,15.35-21.19,16.08c-5.75,0.42-8.62,2.91-8.62,7.45c0,1.21,0.34,2.41,1.01,3.62
			c0.67,1.21,1.69,2.45,2.93,3.83l28.46,31.71h20.23L91.08,60.86C95.98,60.08,100.06,58.72,103.33,56.76z"/>
	</g>
</g>
</svg>
